<svg xmlns="http://www.w3.org/2000/svg" viewBox="0 0 1000 1000">
<defs><linearGradient id="g" x1="0" y1="0" x2="1" y2="1">
<stop offset="0" stop-color="#C46A20"/><stop offset="1" stop-color="#7A3B10"/></linearGradient></defs>
<rect width="1000" height="1000" fill="url(#g)"/>
<g transform="translate(150 157.12259574685368) scale(0.013437211939769041)" fill="#FFFFFF"><path d="M46463.95 36493.18c496.42,387.26 960.17,599.33 1556.71,762.02 613.92,174.51 1828.56,-187.72 2054.52,-60.49 106.38,325.38 345.55,886.47 465.83,1337.7 67.44,266.99 196.76,856.57 226.65,1290.43 37.55,549.95 -13.9,357.36 -370.58,177.98 -735.6,-370.57 -1619.28,-440.8 -2450.13,-1098.53 -634.78,-577.07 -1554.62,-1539.32 -1483.01,-2409.11zm-10.43 -981.02c-11.12,-1.39 -22.25,0 -34.06,-1.39 -52.15,-756.45 -68.14,-1608.85 -478.34,-2279.79 -19.47,-69.52 -40.33,-139.05 -63.97,-209.97 125.84,-34.76 823.2,-340.68 964.34,-398.39 268.38,-70.91 251.69,-101.51 645.21,2.08 1800.75,443.59 2328.46,1449.64 3251.08,2809.59 264.9,391.44 -171.72,344.16 -547.17,489.47 -1643.62,540.22 -2160.91,607.66 -3737.08,-411.6zm-3778.79 -1437.82c-58.41,-276.72 -195.37,-638.95 32.67,-673.72 1112.43,130.01 1423.92,7.65 2439.71,7.65 451.93,660.5 417.16,1811.17 455.4,2619.77 32.67,592.37 278.8,1667.96 244.74,2194.97 -1113.83,-171.04 -2906.93,-2893.72 -3172.52,-4148.68zm-246.82 -1592.17c11.82,-370.58 -337.9,-1261.22 -637.57,-1451.73 -18.77,-179.38 -18.77,-67.44 -1.38,-224.57 577.07,-269.07 1283.47,-1092.27 1962.05,-1254.27 1700.63,-196.06 2429.97,412.3 3767.66,1264 474.88,289.93 441.5,470.7 -111.24,563.86 -1273.04,145.32 -2428.58,1300.16 -3562.57,1285.56 -505.47,15.99 -958.78,-125.84 -1416.96,-182.86zm-2653.85 1614.42c23.64,-212.06 47.28,-426.2 74.4,-640.34 -1592.87,27.12 -2026.02,43.8 -3397.79,-308.7 -340.68,285.75 -442.89,712.65 -529.1,1120.08 28.51,319.83 -313.57,2715.04 -293.4,3119.68 41.71,445.67 129.32,379.61 647.99,248.9 1512.91,-529.8 3269.86,-1869.58 3497.9,-3539.62zm889.95 -3157.22c0,-57.01 1.39,-114.03 3.47,-173.12 -1259.83,-453.32 -1829.95,-1112.43 -3410.3,-1426 -1083.93,-223.87 -3260.82,317.74 -4323.89,807.91 -928.88,520.76 228.75,276.72 1890.44,1131.2 723.08,384.49 1492.05,743.25 2225.55,1125.64 487.39,130.71 2728.94,428.29 2886.77,-17.38 167.56,-433.15 262.81,-1177.09 727.95,-1448.24zm-5852.78 3504.16c-81.35,-415.08 239.17,-1398.19 580.55,-1633.19 -5.56,-189.81 14.6,-70.92 -38.24,-237.78 -98.73,-25.03 -1145.11,-705.71 -1861.93,-841.28 -2331.25,-668.15 -3826.07,68.14 -5723.46,1181.26 -472.09,308.01 -426.2,556.22 246.12,628.53 2776.92,221.1 3007.75,1661 6796.97,902.46zm-25.73 1074.19c-121.67,-171.03 14.61,-57.01 -182.16,-62.57 -1460.07,277.41 -1859.15,443.59 -3242.74,237.09 -217.61,896.2 220.41,4120.86 -67.44,5293.09 2002.38,-428.29 3237.88,-3566.74 3492.34,-5467.61zm-4760.51 2553.04c-127.93,-1549.06 -25.02,-1387.06 296.88,-2760.22 -274.64,-54.92 -1070.02,-318.43 -1350.91,-403.95 -367.1,-69.53 -351.11,-103.59 -858.66,32.67 -1353.69,391.44 -2512.7,1594.95 -3166.95,2793.6 -231.53,469.31 -721,1357.16 -611.14,1803.53 483.91,775.92 4094.45,-1291.82 5690.78,-1465.63zm123.76 1082.54c-1013.71,808.6 -2622.56,1581.04 -3880.3,1866.1 -194.68,59.1 -425.51,15.99 -640.34,217.62 -216.23,456.79 -969.91,4827.95 164.77,3748.9 1638.75,-1561.58 4856.46,-3979.04 4355.87,-5832.63zm-21942.03 -17000.05c-2383.39,928.19 -5133.18,282.28 -6175.39,-2206.09 -1079.75,-2580.15 540.92,-5095.64 2690,-5704.7 349.72,-99.42 287.14,-116.11 422.72,196.76l3118.29 7178.66c133.49,308 241.25,419.25 -55.62,535.36zm6849.8 17938.67c-709.17,-85.52 -943.48,609.05 -1423.91,1136.77 -2159.51,2575.98 -4990.65,3201.02 -6458.37,-463.05 -1173.61,-2928.48 -437.32,-6808.08 3184.34,-5151.95 1029.01,474.18 1584.53,214.84 1074.89,-750.89 -663.98,-1279.99 -867.7,-1346.74 -1571.31,-3865.7 -460.27,-1647.79 -609.06,-3072.4 -285.76,-4799.45 281.59,-1501.78 1081.14,-2746.31 1737.48,-3792.7 1961.36,-3125.93 5686.62,-5865.99 9220.68,-7258.62 5116.5,-2016.28 9128.9,-858.66 12464.81,-4020.05 1060.29,-1005.36 1330.05,-2230.43 1737.48,-3471.48 31.29,-95.25 187.72,-98.04 260.73,-5.57 1879.31,2402.85 1611.63,6490.35 -2892.33,7803.72 -2028.8,591.67 -196.76,1611.63 458.88,2334.02 2191.5,1877.23 6395.8,5140.13 8830.63,7442.17 1900.17,1471.89 1257.04,1321.02 -772.44,1614.42 -1049.86,152.27 -2153.95,358.06 -3195.46,563.17 -3928.28,962.95 -6780.98,2267.28 -10278.88,4263.4 -1276.52,728.64 -1056.11,2489.76 -1340.48,2721.98 -1715.93,1403.06 -4042.99,4805.71 -2251.98,6841.47 1017.18,1155.53 -427.59,5738.76 2214.44,5623.34 1091.57,-47.28 4409.4,-4264.79 5049.74,-4057.6 2238.78,723.78 3122.46,-2583.63 4458.77,-3153.75 652.17,-278.1 643.83,25.03 1090.19,-114.02 1386.37,-431.07 3030.69,-1558.8 3651.56,-2025.33 1373.15,-1032.47 2076.77,367.11 2729.63,679.98l2601.7 10820.49c59.8,233.61 -38.24,351.12 -285.75,349.72l-27508.37 7.64c-555.52,0.7 -543.01,-18.07 -610.44,-410.9 -243.35,-1422.52 -829.46,-5459.95 -1008.84,-6720.48 -82.04,-573.6 -188.42,-2056.61 -881.6,-2140.73zm-10759.31 -27454.14c-3304.62,748.81 -5101.89,4602 -3946.36,7733.49 1060.99,2876.34 4275.91,4601.3 7999.78,3374.84 78.57,-26.42 160.61,37.54 134.18,143.23 -137.66,558.3 -455.4,1281.38 -580.55,1989.86 -161.3,916.37 -238.48,1817.44 -193.29,2756.75 91.09,1863.32 499.9,2918.74 1014.41,4389.93 55.62,159.22 -100.82,374.76 -273.24,386.57 -7088.28,501.29 -2831.84,17053.59 5745.71,10151.64 146.01,-117.49 251.69,-73 280.89,107.08 215.54,1314.06 435.94,2767.87 622.27,4087.49 467.92,3310.88 212.76,3284.46 1814.66,3274.03l28786.97 -4.87c2052.44,0 1703.41,-711.96 1125.64,-2968.8 -231.53,-906.64 -458.88,-1829.96 -678.58,-2751.18 -545.79,-2146.3 -1130.52,-4234.2 -1642.23,-6432.64 182.86,130.02 1165.27,944.88 2134.48,489.47 492.25,-231.53 2578.06,2703.9 4859.93,1848.72 1286.25,-482.52 -18.77,-2925.7 -127.93,-3851.79 -91.08,-777.32 2070.52,-259.34 -686.92,-3881.69 -684.15,-899.69 -1848.03,-1377.34 -1809.79,-1602.6 267.68,-1556.71 -2751.88,-3643.91 -4169.54,-3560.48 -1994.73,117.49 -3071.01,317.73 -766.19,-570.13 823.89,-597.24 1047.07,-1743.04 -349.72,-2802.63 -2683.05,-2241.55 -7127.22,-5882.68 -9434.82,-7958.06 -136.28,-122.37 -156.44,-281.59 0.69,-390.05 4159.8,-2893.72 5278.5,-6243.53 1663.78,-10619.56 -198.85,-240.56 -751.59,-830.84 -1079.06,-1012.31 -555.52,-308.01 -1185.43,4.17 -1291.81,547.17 -277.41,1410.7 -102.2,2097.63 -882.3,3308.1 -1031.78,1601.21 -2578.76,2614.92 -5138.74,3004.26 -275.33,41.71 -199.54,31.29 -330.25,-232.91 -816.25,-1647.1 -3999.19,-7290.6 -4857.16,-8311.96 -3672.42,-4373.94 -7004.85,-3798.26 -11807.09,-1593.56 -5870.17,2694.87 -7067.42,4223.07 -5945.25,10647.37 30.59,179.37 8.34,260.03 -192.59,305.22zm23404.88 4591.56c-1126.33,-1492.74 -7260.7,-1088.09 -7204.39,4100.01 4.87,463.05 35.46,1088.79 372.66,1277.9 1268.18,710.57 437.33,-3248.3 3910.9,-4362.13 848.92,-271.84 1978.04,-75.78 2734.49,-234.3 483.22,-101.5 466.53,-409.51 186.33,-781.48zm700.83 3374.84c81.35,988.67 1522.65,2101.8 2158.81,3971.39 80.65,237.09 -193.28,554.82 -456.78,502.67 -1651.27,-328.86 -3796.87,-1763.9 -4150.07,-868.39 -158.53,823.89 401.17,1033.86 987.97,1388.45 1407.93,851.01 4708.37,2269.36 5663.68,571.51 950.43,-1690.2 -1264,-3965.12 -2390.34,-5096.33 -267.68,-219.01 -978.93,-830.15 -1552.54,-787.74 -84.13,6.26 -276.72,127.24 -260.73,318.43zm-2719.89 -8795.16c-355.98,-563.86 -3132.89,-6853.28 -6509.82,-9469.58 -1745.83,-1353 -4174.4,-1067.24 -5613.61,-292.71 -1820.91,981.02 2014.2,203.71 5219.39,2353.49 3162.79,2121.27 6085.01,7500.58 6904.04,7408.8z"/></g></svg>