<?xml version="1.0" encoding="UTF-8"?>
<!DOCTYPE svg PUBLIC "-//W3C//DTD SVG 1.1//EN" "http://www.w3.org/Graphics/SVG/1.1/DTD/svg11.dtd">
<!-- Creator: CorelDRAW 2026 -->
<svg xmlns="http://www.w3.org/2000/svg" xml:space="preserve" width="200mm" height="200mm" version="1.1" style="shape-rendering:geometricPrecision; text-rendering:geometricPrecision; image-rendering:optimizeQuality; fill-rule:evenodd; clip-rule:evenodd"
viewBox="0 0 13815.68 13815.68"
 xmlns:xlink="http://www.w3.org/1999/xlink"
 xmlns:xodm="http://www.corel.com/coreldraw/odm/2003">
 <defs>
  <style type="text/css">
   <![CDATA[
    .fil0 {fill:#704A28}
    .fil1 {fill:white}
   ]]>
  </style>
 </defs>
 <g id="Слой_x0020_1">
  <metadata id="CorelCorpID_0Corel-Layer"/>
  <rect class="fil0" y="-0" width="13815.68" height="13815.68" rx="1709.57" ry="924.85"/>
 </g>
 <g id="Слой_x0020_1_0">
  <metadata id="CorelCorpID_1Corel-Layer"/>
  <path class="fil1" d="M11331.98 9286.27c107.57,83.92 208.06,129.87 337.32,165.13 133.02,37.81 396.23,-40.68 445.19,-13.11 23.05,70.51 74.88,192.09 100.94,289.87 14.61,57.85 42.64,185.61 49.11,279.62 8.13,119.17 -3.01,77.44 -80.3,38.57 -159.4,-80.3 -350.88,-95.51 -530.92,-238.04 -137.56,-125.05 -336.87,-333.56 -321.35,-522.03zm-2.27 -212.58c-2.41,-0.3 -4.82,0 -7.38,-0.3 -11.3,-163.92 -14.77,-348.62 -103.65,-494.01 -4.22,-15.07 -8.74,-30.13 -13.86,-45.5 27.27,-7.53 178.38,-73.82 208.96,-86.32 58.16,-15.37 54.54,-22 139.81,0.45 390.2,96.12 504.55,314.12 704.48,608.81 57.4,84.82 -37.21,74.58 -118.57,106.06 -356.16,117.06 -468.25,131.68 -809.79,-89.19zm-818.82 -311.56c-12.66,-59.96 -42.34,-138.45 7.08,-145.98 241.05,28.17 308.55,1.66 528.66,1.66 97.93,143.12 90.4,392.46 98.68,567.67 7.08,128.36 60.42,361.43 53.03,475.63 -241.35,-37.07 -629.9,-627.04 -687.45,-898.98zm-53.49 -345.01c2.56,-80.3 -73.22,-273.29 -138.15,-314.58 -4.07,-38.87 -4.07,-14.61 -0.3,-48.66 125.05,-58.31 278.12,-236.68 425.16,-271.79 368.51,-42.48 526.55,89.34 816.42,273.9 102.9,62.83 95.67,101.99 -24.11,122.19 -275.85,31.49 -526.25,281.73 -771.97,278.57 -109.52,3.47 -207.75,-27.27 -307.04,-39.62zm-575.06 349.83c5.12,-45.95 10.24,-92.35 16.12,-138.76 -345.16,5.88 -439.01,9.49 -736.27,-66.89 -73.82,61.92 -95.97,154.42 -114.65,242.71 6.18,69.31 -67.95,588.32 -63.58,676.01 9.04,96.57 28.03,82.25 140.42,53.93 327.83,-114.8 708.54,-405.12 757.96,-767zm192.84 -684.14c0,-12.35 0.3,-24.71 0.75,-37.51 -272.99,-98.23 -396.53,-241.06 -738.98,-309 -234.87,-48.51 -706.58,68.85 -936.94,175.07 -201.28,112.84 49.56,59.96 409.64,245.12 156.68,83.32 323.31,161.06 482.25,243.92 105.61,28.32 591.34,92.81 625.53,-3.76 36.31,-93.86 56.95,-255.07 157.74,-313.82zm-1268.24 759.32c-17.63,-89.94 51.82,-302.97 125.8,-353.9 -1.2,-41.13 3.16,-15.37 -8.29,-51.53 -21.39,-5.42 -248.13,-152.92 -403.46,-182.3 -505.16,-144.77 -829.07,14.77 -1240.21,255.97 -102.3,66.74 -92.36,120.53 53.33,136.2 601.73,47.91 651.75,359.92 1472.83,195.55zm-5.57 232.77c-26.37,-37.06 3.16,-12.35 -39.47,-13.56 -316.39,60.11 -402.86,96.12 -702.67,51.37 -47.15,194.2 47.76,892.95 -14.61,1146.96 433.9,-92.81 701.62,-772.88 756.75,-1184.78zm-1031.56 553.21c-27.72,-335.67 -5.42,-300.56 64.33,-598.11 -59.51,-11.9 -231.86,-69 -292.73,-87.53 -79.54,-15.07 -76.08,-22.45 -186.06,7.07 -293.33,84.82 -544.48,345.61 -686.25,605.35 -50.17,101.7 -156.23,294.08 -132.43,390.8 104.86,168.14 887.23,-279.92 1233.14,-317.59zm26.82 234.58c-219.66,175.22 -568.28,342.59 -840.82,404.36 -42.19,12.81 -92.21,3.47 -138.76,47.16 -46.85,98.98 -210.16,1046.17 35.71,812.35 355.1,-338.38 1052.35,-862.22 943.87,-1263.87zm-4754.61 -3683.74c-516.46,201.13 -1112.31,61.17 -1338.15,-478.04 -233.98,-559.09 117.21,-1104.17 582.9,-1236.15 75.78,-21.55 62.22,-25.16 91.6,42.64l675.7 1555.55c28.93,66.74 52.28,90.85 -12.05,116zm1484.28 3887.13c-153.67,-18.53 -204.44,131.97 -308.55,246.33 -467.94,558.19 -1081.42,693.63 -1399.46,-100.34 -254.31,-634.58 -94.76,-1475.25 690.01,-1116.38 222.98,102.75 343.35,46.55 232.92,-162.71 -143.88,-277.36 -188.02,-291.82 -340.49,-837.66 -99.74,-357.06 -131.97,-665.76 -61.91,-1039.99 61.02,-325.42 234.27,-595.1 376.49,-821.84 425.01,-677.36 1232.23,-1271.1 1998.02,-1572.87 1108.69,-436.91 1978.14,-186.06 2701,-871.11 229.75,-217.85 288.21,-483.31 376.49,-752.24 6.78,-20.64 40.68,-21.24 56.5,-1.2 407.22,520.67 349.23,1406.39 -626.73,1690.98 -439.62,128.21 -42.64,349.23 99.43,505.76 474.87,406.78 1385.91,1113.81 1913.51,1612.64 411.75,318.94 272.39,286.25 -167.38,349.83 -227.5,33 -466.74,77.59 -692.43,122.03 -851.22,208.67 -1469.37,491.3 -2227.33,923.83 -276.6,157.89 -228.85,539.51 -290.47,589.83 -371.82,304.03 -876.07,1041.35 -487.98,1482.48 220.41,250.39 -92.65,1243.53 479.85,1218.52 236.53,-10.24 955.47,-924.14 1094.22,-879.24 485.12,156.84 676.61,-559.85 966.17,-683.39 141.32,-60.26 139.51,5.43 236.23,-24.7 300.41,-93.41 656.71,-337.78 791.25,-438.87 297.55,-223.72 450.02,79.54 591.48,147.34l563.76 2344.69c12.96,50.62 -8.29,76.08 -61.92,75.79l-5960.78 1.65c-120.38,0.15 -117.66,-3.92 -132.28,-89.04 -52.73,-308.25 -179.74,-1183.12 -218.61,-1456.26 -17.77,-124.29 -40.83,-445.65 -191.03,-463.88zm-2331.44 -5949.03c-716.07,162.27 -1105.52,997.21 -855.14,1675.77 229.91,623.27 926.55,997.05 1733.47,731.29 17.03,-5.73 34.8,8.14 29.08,31.04 -29.83,120.98 -98.68,277.66 -125.8,431.18 -34.95,198.57 -51.68,393.82 -41.88,597.36 19.74,403.76 108.32,632.46 219.81,951.25 12.05,34.5 -21.85,81.21 -59.21,83.76 -1535.96,108.63 -613.63,3695.34 1245.04,2199.76 31.64,-25.46 54.54,-15.82 60.87,23.2 46.7,284.74 94.46,599.77 134.83,885.72 101.39,717.43 46.1,711.71 393.22,709.45l6237.84 -1.06c444.74,0 369.11,-154.27 243.92,-643.31 -50.17,-196.46 -99.43,-396.54 -147.04,-596.15 -118.27,-465.08 -244.97,-917.51 -355.86,-1393.89 39.62,28.18 252.5,204.75 462.52,106.06 106.66,-50.16 558.64,585.91 1053.1,400.6 278.72,-104.56 -4.07,-633.97 -27.72,-834.64 -19.74,-168.44 448.66,-56.2 -148.85,-841.13 -148.25,-194.95 -400.45,-298.45 -392.17,-347.26 58.01,-337.32 -596.31,-789.6 -903.5,-771.52 -432.24,25.46 -665.45,68.85 -166.02,-123.54 178.53,-129.42 226.89,-377.7 -75.78,-607.3 -581.39,-485.72 -1544.4,-1274.72 -2044.43,-1724.43 -29.53,-26.51 -33.9,-61.02 0.15,-84.52 901.38,-627.04 1143.79,-1352.91 360.52,-2301.15 -43.08,-52.13 -162.86,-180.04 -233.82,-219.36 -120.38,-66.74 -256.88,0.9 -279.93,118.57 -60.11,305.69 -22.15,454.54 -191.18,716.83 -223.58,346.97 -558.79,566.63 -1113.52,651 -59.66,9.04 -43.24,6.78 -71.56,-50.47 -176.88,-356.91 -866.59,-1579.8 -1052.5,-1801.12 -795.78,-947.79 -1517.88,-823.05 -2558.48,-345.31 -1272,583.95 -1531.43,915.1 -1288.27,2307.18 6.62,38.87 1.8,56.35 -41.74,66.14zm5071.61 994.95c-244.07,-323.47 -1573.32,-235.78 -1561.12,888.43 1.06,100.34 7.69,235.93 80.75,276.91 274.8,153.97 94.77,-703.87 847.45,-945.23 183.96,-58.91 428.62,-16.43 592.54,-50.77 104.7,-21.99 101.09,-88.74 40.38,-169.34zm151.86 731.29c17.63,214.23 329.94,455.44 467.79,860.56 17.48,51.37 -41.88,120.22 -98.98,108.92 -357.81,-71.25 -822.74,-382.22 -899.28,-188.17 -34.35,178.53 86.93,224.03 214.08,300.86 305.08,184.4 1020.26,491.75 1227.26,123.84 205.95,-366.25 -273.9,-859.2 -517.96,-1104.32 -58,-47.46 -212.12,-179.89 -336.42,-170.7 -18.23,1.35 -59.96,27.57 -56.49,69zm-589.38 -1905.83c-77.13,-122.18 -678.86,-1485.03 -1410.61,-2051.96 -378.3,-293.18 -904.55,-231.26 -1216.42,-63.43 -394.57,212.58 436.46,44.14 1130.99,509.98 685.34,459.66 1318.56,1625.3 1496.03,1605.41z"/>
 </g>
</svg>
