<?xml version="1.0" encoding="UTF-8"?>
<!DOCTYPE svg PUBLIC "-//W3C//DTD SVG 1.1//EN" "http://www.w3.org/Graphics/SVG/1.1/DTD/svg11.dtd">
<!-- Creator: CorelDRAW 2026 -->
<svg xmlns="http://www.w3.org/2000/svg" xml:space="preserve" width="169.14mm" height="197.419mm" version="1.1" style="shape-rendering:geometricPrecision; text-rendering:geometricPrecision; image-rendering:optimizeQuality; fill-rule:evenodd; clip-rule:evenodd"
viewBox="0 0 3398.94 3967.22"
 xmlns:xlink="http://www.w3.org/1999/xlink"
 xmlns:xodm="http://www.corel.com/coreldraw/odm/2003">
 <defs>
  <style type="text/css">
   <![CDATA[
    .fil0 {fill:#FEFEFE}
   ]]>
  </style>
 </defs>
 <g id="Слой_x0020_1">
  <metadata id="CorelCorpID_0Corel-Layer"/>
  <path class="fil0" d="M2649.78 1937.14c26.35,20.56 50.97,31.82 82.63,40.45 32.59,9.26 97.07,-9.97 109.06,-3.21 5.65,17.27 18.34,47.06 24.73,71.01 3.58,14.17 10.44,45.47 12.03,68.5 1.99,29.19 -0.74,18.97 -19.67,9.45 -39.05,-19.67 -85.96,-23.4 -130.06,-58.31 -33.69,-30.63 -82.52,-81.71 -78.72,-127.88zm-0.55 -52.08c-0.59,-0.07 -1.18,0 -1.81,-0.07 -2.77,-40.15 -3.62,-85.4 -25.39,-121.02 -1.03,-3.69 -2.14,-7.38 -3.4,-11.15 6.68,-1.84 43.7,-18.08 51.19,-21.15 14.25,-3.76 13.36,-5.39 34.25,0.11 95.59,23.55 123.6,76.95 172.58,149.14 14.06,20.78 -9.12,18.27 -29.05,25.98 -87.25,28.68 -114.7,32.26 -198.37,-21.85zm-200.59 -76.32c-3.1,-14.69 -10.37,-33.92 1.73,-35.76 59.05,6.9 75.59,0.41 129.51,0.41 23.99,35.06 22.15,96.14 24.17,139.06 1.73,31.44 14.8,88.54 12.99,116.51 -59.12,-9.08 -154.31,-153.61 -168.41,-220.22zm-13.1 -84.52c0.63,-19.67 -17.94,-66.95 -33.84,-77.06 -1,-9.52 -1,-3.58 -0.07,-11.92 30.63,-14.28 68.13,-57.98 104.15,-66.58 90.27,-10.41 128.99,21.89 200,67.1 25.21,15.39 23.44,24.98 -5.9,29.93 -67.58,7.71 -128.91,69.02 -189.11,68.24 -26.83,0.85 -50.9,-6.68 -75.22,-9.71zm-140.87 85.7c1.25,-11.26 2.51,-22.62 3.95,-33.99 -84.55,1.44 -107.54,2.33 -180.36,-16.39 -18.08,15.17 -23.51,37.83 -28.09,59.46 1.51,16.98 -16.65,144.12 -15.57,165.6 2.21,23.66 6.86,20.15 34.4,13.21 80.31,-28.12 173.57,-99.24 185.68,-187.89zm47.24 -167.59c0,-3.03 0.07,-6.05 0.18,-9.19 -66.88,-24.06 -97.14,-59.05 -181.03,-75.7 -57.54,-11.88 -173.09,16.87 -229.52,42.89 -49.31,27.64 12.14,14.69 100.35,60.05 38.38,20.41 79.2,39.45 118.14,59.75 25.87,6.94 144.86,22.73 153.24,-0.92 8.89,-22.99 13.95,-62.48 38.64,-76.88zm-310.68 186.01c-4.32,-22.03 12.7,-74.22 30.82,-86.69 -0.3,-10.08 0.77,-3.77 -2.03,-12.62 -5.24,-1.33 -60.78,-37.46 -98.84,-44.66 -123.75,-35.47 -203.09,3.62 -303.81,62.7 -25.06,16.35 -22.62,29.53 13.06,33.36 147.41,11.74 159.66,88.17 360.8,47.91zm-1.36 57.02c-6.46,-9.08 0.78,-3.03 -9.67,-3.32 -77.5,14.73 -98.69,23.55 -172.13,12.59 -11.55,47.57 11.7,218.75 -3.58,280.97 106.29,-22.73 171.87,-189.33 185.38,-290.23zm-252.7 135.52c-6.79,-82.23 -1.33,-73.63 15.76,-146.52 -14.58,-2.91 -56.8,-16.9 -71.71,-21.44 -19.49,-3.69 -18.64,-5.5 -45.58,1.73 -71.86,20.78 -133.38,84.66 -168.11,148.29 -12.29,24.91 -38.27,72.04 -32.44,95.74 25.69,41.19 217.34,-68.57 302.08,-77.8zm6.57 57.46c-53.81,42.92 -139.21,83.92 -205.98,99.06 -10.33,3.14 -22.59,0.85 -33.99,11.55 -11.48,24.25 -51.49,256.28 8.75,199 86.99,-82.89 257.79,-211.22 231.22,-309.61zm-1164.73 -902.4c-126.51,49.27 -272.48,14.98 -327.8,-117.1 -57.32,-136.96 28.71,-270.49 142.79,-302.82 18.56,-5.28 15.24,-6.16 22.44,10.45l165.53 381.06c7.09,16.35 12.81,22.26 -2.95,28.42zm363.6 952.22c-37.64,-4.54 -50.08,32.33 -75.59,60.34 -114.63,136.74 -264.91,169.92 -342.82,-24.58 -62.3,-155.45 -23.21,-361.39 169.03,-273.48 54.62,25.17 84.11,11.4 57.06,-39.86 -35.25,-67.94 -46.06,-71.49 -83.41,-205.2 -24.43,-87.47 -32.33,-163.09 -15.17,-254.77 14.95,-79.72 57.39,-145.78 92.23,-201.32 104.11,-165.93 301.86,-311.38 489.45,-385.3 271.6,-107.03 484.58,-45.58 661.66,-213.39 56.28,-53.37 70.6,-118.4 92.23,-184.28 1.66,-5.06 9.97,-5.2 13.84,-0.3 99.76,127.55 85.55,344.52 -153.53,414.24 -107.69,31.41 -10.44,85.55 24.36,123.89 116.33,99.65 339.5,272.85 468.75,395.05 100.87,78.13 66.73,70.12 -41,85.7 -55.73,8.08 -114.34,19.01 -169.62,29.89 -208.52,51.12 -359.95,120.35 -545.63,226.31 -67.76,38.68 -56.06,132.16 -71.16,144.49 -91.08,74.48 -214.61,255.1 -119.54,363.16 53.99,61.34 -22.7,304.62 117.55,298.5 57.94,-2.51 234.06,-226.39 268.05,-215.39 118.84,38.42 165.75,-137.14 236.68,-167.41 34.62,-14.76 34.18,1.33 57.87,-6.05 73.59,-22.88 160.88,-82.75 193.83,-107.51 72.89,-54.81 110.24,19.49 144.89,36.1l138.1 574.37c3.17,12.4 -2.03,18.64 -15.17,18.56l-1460.21 0.41c-29.49,0.04 -28.82,-0.96 -32.4,-21.81 -12.92,-75.51 -44.03,-289.83 -53.55,-356.74 -4.35,-30.45 -10,-109.17 -46.8,-113.63zm-571.13 -1457.33c-175.42,39.75 -270.82,244.28 -209.48,410.51 56.32,152.68 226.97,244.25 424.65,179.14 4.17,-1.4 8.53,1.99 7.12,7.6 -7.31,29.63 -24.17,68.02 -30.82,105.63 -8.56,48.64 -12.66,96.47 -10.26,146.34 4.83,98.91 26.54,154.93 53.85,233.03 2.95,8.45 -5.35,19.89 -14.5,20.52 -376.26,26.61 -150.32,905.24 304.99,538.87 7.75,-6.24 13.36,-3.87 14.91,5.69 11.44,69.75 23.14,146.92 33.03,216.97 24.84,175.75 11.29,174.35 96.33,173.79l1528.08 -0.26c108.95,0 90.42,-37.79 59.75,-157.59 -12.29,-48.13 -24.36,-97.14 -36.02,-146.04 -28.97,-113.93 -60.01,-224.76 -87.17,-341.46 9.71,6.9 61.86,50.16 113.3,25.98 26.13,-12.29 136.85,143.53 257.98,98.13 68.28,-25.61 -1,-155.3 -6.79,-204.46 -4.83,-41.26 109.91,-13.77 -36.47,-206.05 -36.31,-47.76 -98.1,-73.11 -96.07,-85.07 14.21,-82.63 -146.08,-193.43 -221.33,-189 -105.88,6.24 -163.02,16.87 -40.67,-30.26 43.74,-31.7 55.58,-92.52 -18.56,-148.77 -142.42,-118.99 -378.33,-312.27 -500.82,-422.43 -7.23,-6.49 -8.3,-14.95 0.04,-20.7 220.81,-153.61 280.19,-331.42 88.32,-563.71 -10.56,-12.77 -39.9,-44.1 -57.28,-53.74 -29.49,-16.35 -62.92,0.22 -68.57,29.05 -14.73,74.88 -5.43,111.35 -46.83,175.6 -54.77,85 -136.89,138.81 -272.78,159.47 -14.62,2.21 -10.59,1.66 -17.53,-12.36 -43.33,-87.43 -212.29,-387 -257.83,-441.22 -194.94,-232.18 -371.83,-201.62 -626.75,-84.59 -311.6,143.05 -375.15,224.17 -315.59,565.19 1.62,9.52 0.44,13.8 -10.22,16.2zm1242.38 243.73c-59.79,-79.24 -385.41,-57.76 -382.42,217.64 0.26,24.58 1.88,57.79 19.78,67.83 67.32,37.72 23.21,-172.43 207.6,-231.55 45.06,-14.43 105,-4.02 145.15,-12.44 25.65,-5.39 24.76,-21.74 9.89,-41.48zm37.2 179.14c4.32,52.48 80.82,111.57 114.59,210.81 4.28,12.58 -10.26,29.45 -24.25,26.68 -87.65,-17.46 -201.55,-93.63 -220.3,-46.1 -8.41,43.73 21.3,54.88 52.45,73.7 74.73,45.17 249.93,120.46 300.64,30.34 50.45,-89.72 -67.1,-210.48 -126.88,-270.52 -14.21,-11.63 -51.96,-44.07 -82.41,-41.81 -4.47,0.33 -14.69,6.75 -13.84,16.9zm-144.38 -466.87c-18.9,-29.93 -166.3,-363.79 -345.56,-502.67 -92.67,-71.82 -221.59,-56.65 -297.98,-15.54 -96.66,52.08 106.92,10.81 277.06,124.93 167.89,112.6 323.01,398.15 366.48,393.28zm-787.88 3055.63l-9 21.96c-3.58,8.75 -7.34,17.53 -11.63,25.95 -8.67,17.24 -19.3,34.03 -32.96,47.8 -19.38,19.45 -43.11,31.63 -70.9,27.42 -28.01,-3.65 -46.72,-23.36 -59.35,-47.39 -8.08,-15.43 -14.1,-32.11 -18.71,-48.9 -8.27,-30.08 -13.43,-61.52 -17.12,-92.49 -3.58,-30.08 -5.57,-60.45 -7.38,-90.68 -3.5,-59.57 -4.76,-119.32 -4.61,-178.96 0.3,-118.32 5.65,-237.31 11.92,-355.45l0.44 -7.9 74.92 4.39 -0.41 7.79c-6.28,116.99 -11.48,234.65 -11.92,351.79 -0.33,85.59 1.03,174.79 11.29,259.82 3.29,27.27 7.71,55.25 14.95,81.75 3.18,11.55 7.12,23.29 12.29,33.84 6.02,10.89 10.08,7.83 17.38,-1.4 4.83,-5.5 8.86,-12.58 12.14,-18.79 1.59,-3.17 3.17,-6.49 4.8,-9.74l1.73 -4.43 1.81 -3.65c4.35,-9.78 8.12,-20.08 11.29,-30.41l4.61 -15.8 5.02 -16.31c13.95,-49.49 22.7,-102.41 30.15,-153.35 15.02,-102.78 22.55,-206.79 24.73,-310.53 0,-9.67 0,-19.41 0,-29.05 -0.41,-17.64 -0.85,-35.32 -1.18,-53.03 -0.3,-16.65 -0.55,-33.33 -1.07,-49.97 -0.11,-3.95 -0.07,-10.37 -0.52,-15.46l-1.33 -0.22 0.55 -13.88 73.78 -6.24 0.63 7.86c5.5,68.02 5.24,137.37 2.92,205.61l-4.61 101.38c-1.51,33.33 -3.39,66.77 -4.43,100.09 -1.99,65.07 -1.77,131.5 4.39,196.34 6.05,63.89 18.53,127.44 40.15,187.93l2.66 7.42 -70.64 25.1 -2.58 -7.45c-15.13,-43.18 -26.35,-87.69 -34.21,-132.75zm377.18 -630.43c-7.94,-1.92 -16.05,-3.25 -24.17,-4.21 -9.01,-1 -18.16,-1.44 -27.27,-1.62l-3.47 762.93 -74.73 0 3.25 -757.91 -8.52 1.03c-18.05,2.8 -36.43,6.27 -54.22,11.14l-7.38 1.99 -21.37 -71.19 7.53 -2.29c20.93,-6.27 42.78,-10.56 64.4,-13.69 21.15,-3.06 42.48,-5.24 63.85,-6.24 22.07,-1.03 44.4,-0.99 66.58,1 12.07,1.48 24.17,3.69 35.62,7.2 13.73,3.8 27.46,9.45 39.12,17.94l6.35 4.58 -43.36 60.34 -6.31 -4.1c-4.65,-3.03 -10.55,-5.28 -15.87,-6.9zm-858.59 674.28l-3.36 -55.95 -5.8 -82.93c-3.39,-48.9 -6.35,-97.95 -8.23,-146.92l1.73 1.36c9.3,7.86 18.82,15.87 27.64,24.4 18.97,18.45 34.21,39.97 46.39,63.44 11.55,21.33 20.59,43.81 27.09,67.1 16.83,51.74 6.01,148.33 15.24,221.22l63.41 -4.17c4.17,-0.26 4.02,-175.82 -0.22,-202.84 -4.54,-29.71 -12.95,-58.72 -24.8,-86.32 -17.9,-41.81 -43.55,-78.94 -75.47,-111.31 -10.37,-10.48 -21.22,-20.48 -32.55,-29.93 1.14,-2.69 2.62,-5.68 3.58,-7.75l2.92 -5.39 1.73 -5.24c0.52,-1 1.07,-2.07 1.66,-2.99l0.7 -0.7 13.51 -34.25c13.25,-34.58 25.02,-70.01 36.28,-105.22l17.49 -52.26 17.9 -52.52c4.17,-12.81 8.41,-25.58 12.51,-38.38l6.17 -19.74 6.72 -19.6c1.33,-4.17 2.66,-8.23 3.98,-12.33 1.15,-2.91 2.4,-6.13 3.91,-8.86l3.99 -7.31 -68.09 -32.33 -3.36 7.12c-8.23,17.42 -14.84,36.09 -20.81,54.51l-7.9 27.16 -8.41 26.83c-10.96,34.84 -22.44,69.5 -34.18,104.08 -11.59,34.03 -23.18,68.28 -36.06,101.83 -1.84,4.8 -3.69,9.56 -5.61,14.32 0.37,-48.46 2.1,-96.99 4.43,-145.34l5.2 -89.94 6.05 -98.65 -74.92 -4.35 -6.64 109.94c-2.03,33.99 -3.98,68.02 -5.57,102.05 -1.07,22.59 -1.92,45.21 -2.47,67.87 -7.05,-19.89 -13.8,-39.9 -20.59,-59.83 -11.77,-34.58 -23.22,-69.23 -34.18,-104.07l-8.45 -26.83 -7.9 -27.16c-5.94,-18.42 -12.55,-37.09 -20.78,-54.51l-3.36 -7.12 -68.09 32.33 3.99 7.31c1.51,2.73 2.77,5.94 3.91,8.89 1.33,4.06 2.66,8.12 3.98,12.29l6.72 19.6 6.13 19.74c4.13,12.85 8.38,25.58 12.55,38.38l17.9 52.55 17.49 52.22c11.26,35.21 23.03,70.64 36.28,105.22l13.51 34.25 0.7 0.7c0.59,0.92 1.15,2.03 1.66,2.99l1.73 5.24 2.92 5.42c0.96,2.03 2.44,5.02 3.58,7.75 -11.33,9.45 -22.18,19.41 -32.55,29.93 -31.92,32.33 -57.61,69.49 -75.47,111.27 -11.85,27.64 -20.26,56.61 -24.8,86.36 -4.24,26.98 -4.39,202.54 -0.26,202.8l63.44 4.21c9.23,-72.89 -1.59,-169.51 15.24,-221.25 6.5,-23.29 15.54,-45.73 27.09,-67.06 12.18,-23.51 27.42,-45.03 46.39,-63.44 4.35,-4.21 8.86,-8.31 13.43,-12.29 1.77,41.08 4.17,82.12 6.98,123.12l6.17 89.61 5.06 80.12 1.84 74.4c23.92,1.11 48.13,1.88 71.97,1.73l0 -94.59zm1210.79 -486.54c4.02,36.02 6.05,72.26 6.2,108.54 0.22,72.41 -6.49,144.68 -20.93,215.65 -7.34,36.06 -16.83,72 -29.56,106.55 -6.64,17.94 -14.61,35.21 -23.51,52.11 -9.49,17.94 -20.45,35.69 -33.69,51.08 -20.74,24.14 -47.57,40.64 -80.2,34.14 -16.35,-3.29 -30.12,-11.85 -41.89,-23.47 -8.45,-8.42 -15.32,-18.53 -20.93,-28.86 -18.97,-32.48 -30.56,-72.45 -38.53,-109.13 -7.75,-35.54 -12.84,-71.82 -16.5,-107.99 -3.54,-35.62 -5.91,-71.34 -6.94,-107.14 -2.03,-71.45 -0.07,-143.71 9.08,-214.69 4.72,-36.54 11.33,-73.59 21.81,-108.95 5.57,-18.79 12.62,-37.13 21.26,-54.7 9.52,-19.3 21.44,-38.82 37.28,-53.62 11.03,-10.33 24.06,-18.38 38.83,-22.07 16.05,-4.02 32.14,-2.69 47.5,3.14 23.03,8.12 42.07,24.66 57.5,43.44 10.26,13.32 19.08,27.61 26.79,42.41 27.2,52.22 39.9,115.48 46.43,173.57zm-160.03 -189.74c-3.18,1.07 -6.16,3.47 -8.53,5.83l-4.1 5.72 -4.54 6.02c-3.76,5.79 -7.12,11.96 -10.11,18.16 -6.72,13.84 -11.96,28.49 -16.28,43.22 -9.3,31.55 -15.5,64.22 -19.56,96.84 -8.34,67.21 -10.29,135.59 -8.41,203.28 0.96,34.1 3.32,68.17 6.72,102.12 3.32,33.18 7.57,66.73 14.47,99.35 3.36,15.69 7.49,31.22 12.84,46.47 4.5,13.91 9.97,28.27 17.2,40.78 2.95,4.83 6.35,9.63 10.22,13.73 0.7,0.7 1.44,1.4 2.21,2.07 1,-0.48 1.92,-1.18 2.81,-1.96l3.58 -3.06 2.92 -3.43c4.98,-5.61 9.34,-11.81 13.43,-17.86 4.1,-6.35 7.86,-13.07 11.55,-19.6 7.34,-14.02 13.65,-28.82 19.37,-43.62 11.22,-30.78 19.41,-63.04 26.02,-95.18 13.51,-66.02 19.82,-133.16 19.64,-200.55 -0.15,-65.36 -5.91,-133.86 -23.92,-196.86 -8.6,-28.05 -20.89,-57.35 -39.19,-80.64 -5.61,-7.12 -14.69,-17.2 -23.73,-19.82l-0.44 -0.15c-1.03,-0.37 -2.92,-0.89 -4.17,-0.85zm551.6 556.59c16.35,31.48 32.51,63.18 47.06,95.15l2.62 5.79 -71.41 18.86 -2.44 -5.87c-5.9,-14.14 -12.66,-28.09 -19.74,-41.93 -9.93,10.18 -21.7,19.08 -35.5,26.31 -14.69,7.79 -31.08,13.03 -49.09,13.73 -21.18,0.48 -40.3,-4.76 -56.21,-15.46 -12.4,-7.97 -21.59,-18.71 -28.31,-29.93 -6.05,-9.04 -10.41,-19.01 -13.62,-29.01 -11.88,-36.83 -13.32,-74.37 -6.31,-111.86 6.53,-35.1 20.59,-70.42 36.35,-103.63 7.71,-16.2 15.94,-32.33 24.32,-48.35l0 -0.04c-3.87,-16.87 -7.05,-33.84 -9.93,-50.82 -5.83,-34.29 -10.59,-69.31 -11.4,-103.93 -0.41,-18.08 0.11,-36.46 2.95,-54.44 3.03,-19.41 8.64,-39.64 19.08,-57.57 7.68,-13.18 18.12,-25.76 32.88,-34.99 9.04,-5.39 19.01,-8.97 30.26,-10.04l0.26 -0.04 0.26 0c11.77,-0.52 22.81,1.4 32.74,6.2 9.93,4.47 17.83,10.92 23.99,18.49 15.09,18.71 21.26,42.52 23.66,64.25l1.18 14.14c0.41,9.37 0.07,18.75 -0.59,28.01 -1.33,18.42 -4.65,36.68 -9.78,54.7 -6.72,23.44 -15.65,46.58 -26.06,69.2 -9.82,21.33 -20.93,42.52 -31.96,63.48 2.55,10.74 5.54,21.37 9.12,32 8.78,29.41 20.45,58.35 33.7,86.66 0.48,-4.02 0.96,-8.04 1.44,-12.07 3.06,-32.44 3.21,-65.1 0.55,-97.62l-0.48 -6.09 74.96 -3.4 0.44 6.09c2.51,34.95 2.21,70.05 -1.18,104.96 -3.4,35.5 -10.11,71.53 -22.73,105.74l-1.07 3.32zm-106.51 -463.73c-5.24,11.03 -7.9,23.62 -9.52,34.91 -2.18,15.5 -2.95,31.11 -2.62,46.72 0.26,12.85 1.07,25.72 2.33,38.57 2.51,-6.98 4.83,-13.99 6.94,-21.04 4.1,-14.98 7.09,-30.3 8.31,-45.51 0.18,-7.46 0.18,-15.06 0,-22.66l-1.18 -11.37 0 -2.29 -0.48 -2.21 -1.14 -5.57c-0.78,-3.17 -1.62,-6.38 -2.62,-9.56zm26.72 465.94c-13.65,-25.21 -27.16,-50.78 -38.9,-76.47 -8.12,-16.61 -15.61,-33.4 -22.4,-50.42 -7.57,19.12 -13.95,38.72 -17.68,58.31 -5.72,30 -4.91,60.23 4.83,89.72 2.07,6.13 4.69,12.55 8.41,18.19l0.15 0.22 0.11 0.18c1.92,3.43 4.98,8.3 8.97,10.7 1.36,0.85 2.88,1.36 4.58,1.36 3.29,0 8.16,-2.32 10.78,-3.69 5.83,-3.1 10.81,-7.01 15.13,-11.33l0.18 -0.18 0.18 -0.18c5.57,-4.76 10.18,-10.59 14.13,-16.2 4.47,-6.46 8.16,-13.36 11.51,-20.22zm420.48 124.08c1.11,-0.88 2.1,-2.03 2.99,-3.1l0.26 -0.33 2.03 -2.03 1.59 -2.1 0.18 -0.22c5.65,-6.42 10.3,-13.69 14.1,-21.48 4.43,-8.27 7.68,-16.83 10.26,-25.8 2.33,-7.42 4.1,-15.43 4.1,-23.14l0 -7.68 74.14 -1.48 0.22 7.79c0.44,15.32 -2.21,30.63 -6.46,45.29 -3.91,13.43 -8.82,26.65 -15.17,39.08 -6.75,13.21 -14.95,25.5 -24.87,36.76 -3.69,3.87 -7.27,7.64 -10.85,11.4l-0.3 0.33 -0.3 0.26c-20.08,17.24 -43.55,26.79 -69.83,20.74 -11.55,-2.25 -21.92,-7.53 -31.15,-15.13 -12.36,-10.7 -22.33,-24.8 -30.48,-38.97 -11.7,-22.77 -21.22,-46.39 -28.86,-70.64 -14.69,-46.69 -23.51,-95.44 -28.42,-144.08 -4.8,-47.72 -5.54,-96.1 -4.65,-144.05 0.89,-47.5 4.02,-95 9.08,-142.24 5.13,-47.9 12.7,-96.73 25.65,-143.2 6.94,-24.91 16.02,-50.97 29.04,-73.41 8.27,-14.25 18.75,-27.53 31.89,-37.9 8.78,-6.35 18.34,-10.92 28.71,-13.62 21.66,-5.65 42.44,-1.29 61.67,9.82 7.97,4.61 15.13,10.52 21.33,17.13 11.7,11.7 20.22,25.98 26.46,41.37 11.4,28.27 15.06,57.72 11.26,87.95l-1 8.05 -74.37 -11.48 1.14 -7.71c2.51,-16.87 0.3,-33.22 -6.2,-48.94 -2.55,-6.09 -5.91,-12.36 -10.63,-17.05 -1.85,-1.84 -4.28,-4.13 -6.79,-5.46 -0.96,-0.59 -3.28,-1.81 -4.32,-1.55 -0.63,0.18 -1.77,1.03 -2.4,1.51 -4.72,3.5 -9.19,10.66 -11.99,15.57 -9.78,16.98 -16.5,37.5 -21.78,56.28 -11.77,42.22 -18.34,87.06 -22.81,130.65 -4.65,45.25 -8.05,90.79 -9,136.3 -0.96,44.88 -0.07,90.13 4.39,134.82 4.32,43.26 11.85,86.95 25.06,128.44 6.42,20.19 14.54,39.75 24.28,58.57 2.33,4.47 6.57,12.33 10.74,15.35l0.26 0.18c0.52,-0.15 1.29,-0.59 1.77,-0.85zm423.47 -50.45l-9.04 21.96c-3.58,8.75 -7.34,17.53 -11.59,25.95 -8.67,17.24 -19.3,34.03 -32.99,47.8 -19.34,19.45 -43.11,31.63 -70.9,27.42 -28.01,-3.65 -46.72,-23.36 -59.31,-47.39 -8.12,-15.43 -14.1,-32.11 -18.71,-48.9 -8.27,-30.08 -13.47,-61.52 -17.16,-92.49 -3.58,-30.08 -5.57,-60.45 -7.34,-90.68 -3.5,-59.57 -4.76,-119.32 -4.61,-178.96 0.26,-118.32 5.65,-237.31 11.92,-355.45l0.41 -7.9 74.96 4.39 -0.44 7.79c-6.27,116.99 -11.48,234.65 -11.92,351.79 -0.3,85.59 1.03,174.79 11.29,259.82 3.28,27.27 7.71,55.25 14.98,81.75 3.14,11.55 7.09,23.29 12.29,33.84 5.98,10.89 10.04,7.83 17.38,-1.4 4.83,-5.5 8.82,-12.58 12.11,-18.79 1.62,-3.17 3.18,-6.49 4.8,-9.74l1.73 -4.43 1.84 -3.65c4.35,-9.78 8.12,-20.08 11.29,-30.41l4.61 -15.8 4.98 -16.31c13.99,-49.49 22.7,-102.41 30.15,-153.35 15.02,-102.78 22.59,-206.79 24.73,-310.53 0,-9.67 0,-19.41 0,-29.05 -0.37,-17.64 -0.85,-35.32 -1.15,-53.03 -0.3,-16.65 -0.59,-33.33 -1.11,-49.97 -0.11,-3.95 -0.07,-10.37 -0.48,-15.46l-1.37 -0.22 0.59 -13.88 73.78 -6.24 0.63 7.86c5.5,68.02 5.2,137.37 2.88,205.61l-4.61 101.38c-1.51,33.33 -3.4,66.77 -4.39,100.09 -1.99,65.07 -1.77,131.5 4.39,196.34 6.05,63.89 18.49,127.44 40.15,187.93l2.66 7.42 -70.64 25.1 -2.62 -7.45c-15.13,-43.18 -26.31,-87.69 -34.17,-132.75zm377.18 -630.43c-7.97,-1.92 -16.09,-3.25 -24.21,-4.21 -9,-1 -18.16,-1.44 -27.24,-1.62l-3.47 762.93 -74.77 0 3.29 -757.91 -8.53 1.03c-18.08,2.8 -36.43,6.27 -54.22,11.14l-7.38 1.99 -21.41 -71.19 7.53 -2.29c20.96,-6.27 42.77,-10.56 64.4,-13.69 21.18,-3.06 42.48,-5.24 63.85,-6.24 22.11,-1.03 44.44,-0.99 66.58,1 12.11,1.48 24.21,3.69 35.62,7.2 13.73,3.8 27.46,9.45 39.16,17.94l6.31 4.58 -43.37 60.34 -6.27 -4.1c-4.65,-3.03 -10.59,-5.28 -15.87,-6.9zm352.16 187.74c4.02,36.02 6.09,72.26 6.2,108.54 0.22,72.41 -6.5,144.68 -20.93,215.65 -7.34,36.06 -16.83,72 -29.56,106.55 -6.61,17.9 -14.62,35.25 -23.51,52.11 -9.45,17.94 -20.45,35.69 -33.66,51.08 -20.74,24.1 -47.61,40.64 -80.2,34.14 -16.35,-3.29 -30.15,-11.88 -41.89,-23.47 -8.45,-8.38 -15.32,-18.53 -20.93,-28.86 -18.97,-32.48 -30.56,-72.45 -38.53,-109.13 -7.75,-35.5 -12.88,-71.82 -16.5,-107.99 -3.54,-35.62 -5.94,-71.34 -6.98,-107.14 -2.03,-71.45 -0.04,-143.75 9.12,-214.69 4.72,-36.54 11.33,-73.59 21.81,-108.95 5.54,-18.75 12.62,-37.13 21.26,-54.7 9.48,-19.3 21.44,-38.82 37.24,-53.62 11.03,-10.33 24.1,-18.42 38.86,-22.07 16.02,-4.02 32.15,-2.69 47.5,3.14 22.99,8.12 42.04,24.66 57.5,43.44 10.26,13.32 19.08,27.64 26.76,42.41 27.2,52.22 39.93,115.48 46.43,173.57zm-159.99 -189.74c-3.14,1.07 -6.09,3.47 -8.42,5.83l-4.1 5.72 -4.47 6.02c-3.73,5.79 -7.05,11.96 -10.04,18.16 -6.68,13.84 -11.85,28.49 -16.13,43.22 -9.23,31.55 -15.39,64.22 -19.38,96.84 -8.3,67.21 -10.22,135.59 -8.38,203.28 0.96,34.1 3.25,68.17 6.64,102.12 3.29,33.18 7.49,66.73 14.32,99.35 3.32,15.69 7.46,31.22 12.73,46.47 4.47,13.91 9.85,28.27 17.05,40.78 2.92,4.83 6.27,9.63 10.15,13.73 0.67,0.7 1.4,1.4 2.18,2.07 1,-0.48 1.92,-1.18 2.77,-1.96l3.58 -3.06 2.88 -3.43c4.91,-5.61 9.26,-11.81 13.29,-17.86 4.06,-6.35 7.83,-13.07 11.48,-19.6 7.27,-14.02 13.54,-28.82 19.19,-43.62 11.14,-30.78 19.27,-63.04 25.8,-95.18 13.4,-66.02 19.63,-133.16 19.48,-200.55 -0.15,-65.36 -5.83,-133.86 -23.66,-196.86 -8.56,-28.05 -20.7,-57.35 -38.9,-80.64 -5.54,-7.12 -14.5,-17.2 -23.47,-19.82l-0.44 -0.15c-1.07,-0.37 -2.92,-0.89 -4.17,-0.85zm-3188.39 917.16l3351.88 0c12.22,0 22.18,-9.97 22.18,-22.14l0 -0.04c0,-12.18 -9.97,-22.14 -22.18,-22.14l-3351.88 0c-12.22,0 -22.18,9.97 -22.18,22.14l0 0.04c0,12.18 9.96,22.14 22.18,22.14zm-2.69 -1112.47l3351.89 0c12.22,0 22.18,-9.97 22.18,-22.14l0 -0.04c0,-12.18 -9.96,-22.14 -22.18,-22.14l-3351.89 0c-12.22,0 -22.18,9.97 -22.18,22.14l0 0.04c0,12.18 9.97,22.14 22.18,22.14z"/>
 </g>
</svg>
